<svg width="21" height="21" viewBox="0 0 21 21" fill="none" xmlns="http://www.w3.org/2000/svg">
<path d="M1.83325 7.16665C1.83325 6.94563 1.92105 6.73367 2.07733 6.57739C2.23361 6.42111 2.44557 6.33331 2.66659 6.33331H17.6666C17.8876 6.33331 18.0996 6.42111 18.2558 6.57739C18.4121 6.73367 18.4999 6.94563 18.4999 7.16665C18.4999 7.38766 18.4121 7.59962 18.2558 7.7559C18.0996 7.91218 17.8876 7.99998 17.6666 7.99998H2.66659C2.44557 7.99998 2.23361 7.91218 2.07733 7.7559C1.92105 7.59962 1.83325 7.38766 1.83325 7.16665ZM1.83325 10.5C1.83325 10.279 1.92105 10.067 2.07733 9.91072C2.23361 9.75444 2.44557 9.66665 2.66659 9.66665H17.6666C17.8876 9.66665 18.0996 9.75444 18.2558 9.91072C18.4121 10.067 18.4999 10.279 18.4999 10.5C18.4999 10.721 18.4121 10.933 18.2558 11.0892C18.0996 11.2455 17.8876 11.3333 17.6666 11.3333H2.66659C2.44557 11.3333 2.23361 11.2455 2.07733 11.0892C1.92105 10.933 1.83325 10.721 1.83325 10.5ZM2.66659 13C2.44557 13 2.23361 13.0878 2.07733 13.2441C1.92105 13.4003 1.83325 13.6123 1.83325 13.8333C1.83325 14.0543 1.92105 14.2663 2.07733 14.4226C2.23361 14.5788 2.44557 14.6666 2.66659 14.6666H12.6666C12.8876 14.6666 13.0996 14.5788 13.2558 14.4226C13.4121 14.2663 13.4999 14.0543 13.4999 13.8333C13.4999 13.6123 13.4121 13.4003 13.2558 13.2441C13.0996 13.0878 12.8876 13 12.6666 13H2.66659Z" fill="black"/>
</svg>
